<svg width="16" height="16" viewBox="0 0 75 75" fill="none" xmlns="http://www.w3.org/2000/svg">
  <path d="M0 18.75C0 8.39466 8.39466 0 18.75 0H56.25C66.6053 0 75 8.39466 75 18.75V56.25C75 66.6053 66.6053 75 56.25 75H18.75C8.39466 75 0 66.6053 0 56.25V18.75Z" fill="#FFC716"/>
  
  <g>
    <path d="M42.8146 31.883H56.7624C58.8572 31.883 59.5724 33.8756 58.2952 35.4594L36.4793 62.3843C29.4288 56.7643 30.093 47.8745 35.2532 41.3859L42.8146 31.883ZM32.0344 42.6121H18.0866C15.9919 42.6121 15.2766 40.6196 16.5539 39.0357L38.3697 12.1108C45.4202 17.7308 44.6539 26.5185 39.5448 33.0581L32.0344 42.6121Z" fill="#101214"/>
  </g>
</svg>